<svg width="60" height="60" viewBox="0 0 60 60" fill="none" xmlns="http://www.w3.org/2000/svg">
<ellipse cx="34.2856" cy="34.7368" rx="25.7143" ry="25.2632" fill="#FFF1E1"/>
<path d="M39.4329 11.3873C39.0236 10.9865 38.3612 10.9876 37.9532 11.3896L37.9077 11.4346C37.4999 11.8367 37.5009 12.4876 37.9102 12.8884C38.1145 13.0883 38.3816 13.1883 38.6488 13.1883C38.9172 13.1883 39.1855 13.0875 39.3899 12.886L39.4354 12.8411C39.8433 12.439 39.8422 11.7881 39.4329 11.3873Z" fill="#795B39"/>
<g clip-path="url(#clip0_1_660)">
<path d="M51.9322 38.2393L51.9319 38.2387C51.663 37.4195 50.0804 33.3239 45.1529 32.4712C47.3591 27.9832 44.9751 24.2961 44.4703 23.5971L44.4699 23.5966C44.2969 23.3428 44.0118 23.1822 43.6987 23.1709C43.4887 23.1633 38.5818 23.041 36.0532 27.8358C35.6601 27.4537 35.259 27.1271 34.8554 26.8487L46.9068 9.41107C47.2134 8.96741 47.1023 8.35921 46.6587 8.05257C46.2148 7.74583 45.6069 7.85706 45.3002 8.30071L33.1183 25.9268C31.8014 25.4165 30.541 25.3172 29.5289 25.3709C30.0056 24.2766 30.1261 23.4287 30.137 23.3453C30.1383 23.3363 30.1399 23.3221 30.1409 23.3131C30.1731 23.0069 30.0591 22.7069 29.8393 22.5001L29.8389 22.4996C29.6665 22.3283 29.2829 21.9723 28.7141 21.5827C30.7531 17.591 33.4743 14.0343 36.8125 11.001C37.2116 10.6383 37.2412 10.0207 36.8784 9.62162C36.5156 9.2224 35.8983 9.19281 35.499 9.5556C31.9964 12.7383 29.139 16.4689 26.9947 20.6553C25.5118 20.0508 23.5286 19.7119 21.1805 20.4376C21.1092 15.437 17.3112 13.2339 16.5441 12.8402L16.5435 12.8399C16.2742 12.6923 15.9474 12.6788 15.663 12.8108C15.6363 12.8232 15.5252 12.876 15.3542 12.9726L11.5293 9.14769C11.148 8.76634 10.5299 8.76634 10.1483 9.14769C9.76691 9.52904 9.76691 10.1473 10.1483 10.5287L13.7614 14.1418C12.4781 15.32 11.0119 17.3393 10.9681 20.438C10.8063 20.3879 10.6463 20.3433 10.488 20.3032C6.27646 15.6136 3.95722 9.56029 3.95722 3.24972C3.95722 3.1587 3.9578 3.06671 3.95888 2.97393C12.0654 3.30499 19.5424 7.46721 24.1042 14.2382C24.4055 14.6856 25.0126 14.8039 25.4596 14.5025C25.907 14.2011 26.0253 13.5944 25.724 13.147C20.6225 5.57482 12.1333 1.03389 3.01561 1C3.01434 1 3.01317 1 3.0119 1C2.491 1 2.06131 1.40938 2.0365 1.93018C2.01522 2.38028 2.00438 2.82423 2.00438 3.24981C2.00438 9.36273 4.02694 15.251 7.73545 20.0478C4.74335 20.2612 2.7703 22.0411 2.30887 22.4996L2.30838 22.5C2.08484 22.7105 1.97088 23.0173 2.00857 23.3283C2.03387 23.5364 2.68123 28.4038 7.81397 30.1512C4.9247 34.2412 6.70469 38.2604 7.09404 39.0304L7.09434 39.031C7.22559 39.3086 7.48203 39.5119 7.78946 39.5721C7.85147 39.5842 8.33253 39.6733 9.06358 39.6733C10.7605 39.6733 13.8034 39.1932 16.0734 36.1579C19.3214 40.5014 24.1518 39.6124 24.3573 39.5721C24.5693 39.5306 24.7558 39.4201 24.895 39.2651C24.2272 40.8184 24.1632 42.1993 24.1617 42.6437V42.6445C24.1525 42.9514 24.2889 43.2489 24.5355 43.4421C24.6536 43.5345 26.6827 45.0882 29.61 45.088C30.7746 45.0879 32.0818 44.8418 33.4667 44.1599C34.3892 49.5044 39.0966 50.905 39.2983 50.9625C39.3867 50.9877 39.4766 50.9999 39.5659 50.9999C39.7811 50.9999 39.9917 50.9286 40.1634 50.7958L40.164 50.7954C40.8603 50.286 44.2701 47.5121 43.5528 42.5571C44.0135 42.6234 44.4543 42.6537 44.8776 42.6537C49.3363 42.6534 51.7066 39.2835 51.8151 39.1253C51.824 39.1124 51.8335 39.0979 51.8412 39.0858C52.0008 38.8301 52.0319 38.5177 51.9322 38.2393ZM37.2596 29.9887C37.2615 29.9826 37.2625 29.9765 37.2644 29.9703C37.2664 29.9642 37.2696 29.9585 37.2715 29.9524C37.3898 29.5821 37.5433 29.2111 37.7274 28.8494C39.2769 25.8077 42.038 25.2451 43.1493 25.1437C43.7621 26.1765 44.8761 28.7143 43.3486 31.713C43.2363 31.9335 43.1132 32.1457 42.9829 32.3498C40.3984 32.5164 38.593 33.7897 37.5772 34.7593C37.1048 33.7207 36.628 32.0038 37.2596 29.9887ZM28.4642 27.4765C29.6362 27.2129 32.3943 26.9378 34.7736 29.317C34.9488 29.4921 35.1128 29.6749 35.2667 29.862C34.6266 32.3707 35.28 34.4817 35.8881 35.7477C34.7544 35.8759 32.9745 35.7988 31.2533 34.5755C31.2479 34.5716 31.2421 34.5686 31.2366 34.5649C31.2325 34.5619 31.229 34.558 31.2248 34.5551C30.9076 34.3273 30.6009 34.0659 30.3133 33.7784C27.8994 31.3649 28.2173 28.565 28.4642 27.4765ZM20.5267 22.8037C20.5329 22.8007 20.5393 22.7988 20.5454 22.7957C20.8911 22.6176 21.2617 22.4638 21.6471 22.3385C24.8476 21.2987 27.1797 22.7953 28.1042 23.5621C27.8289 24.6474 26.8397 27.2846 23.5966 28.3382C23.3617 28.4145 23.125 28.4775 22.8887 28.5296C20.9453 26.8207 18.7692 26.4437 17.3649 26.4102C17.7673 25.3421 18.6456 23.7878 20.5108 22.8131C20.5164 22.8101 20.5212 22.8067 20.5267 22.8037ZM4.04306 23.5625C4.96738 22.7958 7.3 21.2987 10.5004 22.3386C10.7362 22.4152 10.9655 22.5037 11.1878 22.6008C11.7562 25.1252 13.2941 26.7086 14.4104 27.5607C13.4572 28.1883 11.8328 28.9298 9.7506 28.622C9.74396 28.621 9.73751 28.6209 9.73087 28.62C9.72579 28.6192 9.72101 28.6174 9.71583 28.6166C9.3297 28.5576 8.9378 28.464 8.55098 28.3382C5.30468 27.2836 4.31718 24.6445 4.04306 23.5625ZM15.22 33.8373C15.2162 33.8448 15.2136 33.8525 15.2101 33.86C15.2073 33.8654 15.2035 33.8701 15.2008 33.8756C15.0254 34.2247 14.8151 34.5687 14.5758 34.8981C12.5693 37.6599 9.75363 37.783 8.64063 37.7097C8.19708 36.5937 7.49395 33.9127 9.47218 31.19C9.61974 30.9868 9.77706 30.7936 9.94064 30.6097C10.2099 30.6346 10.4733 30.6479 10.7292 30.6479C12.9205 30.6479 14.6163 29.7924 15.6505 29.0779C15.9528 30.1786 16.156 31.9525 15.22 33.8373ZM15.4696 25.9121C14.5782 25.1994 13.3713 23.8838 13.0206 21.8087C13.0196 21.8022 13.0177 21.7962 13.0164 21.7898C13.0156 21.7835 13.0157 21.7772 13.0147 21.7709C12.9519 21.3873 12.9201 20.9871 12.9201 20.5811C12.9201 17.5444 14.6647 15.8213 15.7147 15.0588C15.7619 15.031 15.8073 14.9993 15.8501 14.9628C15.9285 14.9088 16.0024 14.8602 16.0693 14.818C17.0841 15.4602 19.2288 17.2158 19.2288 20.5812C19.2288 20.8285 19.2155 21.0731 19.1921 21.3137C16.9665 22.6339 15.9353 24.5869 15.4696 25.9121ZM23.5068 37.7076C22.3948 37.7769 19.5679 37.6469 17.5709 34.8982C17.4245 34.6964 17.2903 34.4888 17.1668 34.2785C18.1931 31.901 17.8791 29.7134 17.4769 28.3669C18.6117 28.4193 20.3502 28.772 21.8488 30.2273C21.8633 30.2438 21.8765 30.2612 21.8923 30.2768C22.1714 30.5525 22.4346 30.8597 22.6746 31.19C24.6514 33.911 23.9504 36.5903 23.5068 37.7076ZM24.3329 30.1516C25.1005 29.8902 25.7674 29.5569 26.3475 29.1792C26.3775 30.867 26.8905 33.0613 28.8335 35.059C27.1173 35.9626 26.0303 37.1749 25.3422 38.371C25.9123 36.8911 26.7299 33.5456 24.3329 30.1516ZM33.7595 41.7051C33.754 41.7092 33.7493 41.7138 33.744 41.7179C33.7377 41.7223 33.7313 41.7261 33.7251 41.7306C33.4104 41.9621 33.0669 42.1731 32.7041 42.358C29.6626 43.9083 27.0981 42.7404 26.1393 42.1692C26.2508 40.9734 26.8412 38.2654 29.8395 36.7374C30.0635 36.6232 30.2914 36.5225 30.5205 36.4329C32.1446 37.4589 33.7802 37.7415 35.0844 37.7415C35.5365 37.7415 35.9485 37.7076 36.3067 37.6594C36.0782 38.7773 35.4548 40.4463 33.7595 41.7051ZM39.3866 48.9153C38.3646 48.4723 35.9045 47.0732 35.3728 43.7175C35.3338 43.4715 35.3084 43.2258 35.294 42.9821C37.2875 41.3295 38.0008 39.2378 38.2535 37.8554C39.2409 38.4173 40.6299 39.5206 41.3047 41.4974C41.3102 41.5188 41.3141 41.5403 41.3211 41.5615C41.4446 41.9335 41.5396 42.3265 41.6036 42.7302C42.1298 46.0516 40.2892 48.121 39.3866 48.9153ZM43.7197 40.6076C43.4754 40.5689 43.2355 40.5174 43.0011 40.4566C42.0449 38.0518 40.2777 36.7284 39.0417 36.0614C39.885 35.2923 41.3733 34.3056 43.4781 34.2837C43.4845 34.2836 43.4907 34.2827 43.497 34.2826C43.5037 34.2827 43.51 34.2839 43.5167 34.2839C43.9043 34.2825 44.3054 34.3132 44.706 34.3766C48.0297 34.9028 49.4284 37.295 49.9041 38.3979C49.1662 39.2399 47.0882 41.1404 43.7197 40.6076Z" fill="#795B39"/>
<path d="M39.6687 7.42993C39.3445 6.99898 38.7323 6.91255 38.3012 7.23687L38.245 7.27935C37.8147 7.60435 37.7292 8.21666 38.0542 8.64703C38.2462 8.90133 38.5384 9.03521 38.8341 9.03521C39.0391 9.03521 39.2457 8.97096 39.4219 8.83785L39.4756 8.79732C39.9065 8.473 39.993 7.86089 39.6687 7.42993Z" fill="#795B39"/>
<path d="M51.8295 1.88715C51.8025 1.59603 51.6464 1.33226 51.4041 1.16859C51.162 1.00472 50.859 0.95814 50.5788 1.04154C47.2943 2.01869 44.1473 3.431 41.2251 5.23921C40.7665 5.523 40.6247 6.12476 40.9084 6.58346C41.1922 7.04205 41.794 7.18385 42.2527 6.90006C44.6827 5.39644 47.2764 4.181 49.9776 3.27905C50.023 4.03276 50.046 4.78901 50.046 5.53863C50.046 10.9747 48.8958 16.2115 46.6272 21.1034C46.4004 21.5927 46.6131 22.1733 47.1023 22.4001C47.2353 22.4617 47.375 22.4909 47.5125 22.4909C47.881 22.4909 48.2338 22.2813 48.399 21.925C50.7878 16.7737 51.9989 11.2605 51.9989 5.53853C51.9989 4.32612 51.9419 3.0976 51.8295 1.88715Z" fill="#795B39"/>
<path d="M8.94112 6.56006C8.75958 6.37842 8.50762 6.27393 8.25088 6.27393C7.99405 6.27393 7.74209 6.37842 7.56055 6.56006C7.379 6.7417 7.27441 6.99365 7.27441 7.25039C7.27441 7.50713 7.37881 7.75918 7.56055 7.94073C7.74229 8.12237 7.99414 8.22686 8.25088 8.22686C8.50772 8.22686 8.75967 8.12237 8.94112 7.94073C9.12276 7.75908 9.22735 7.50713 9.22735 7.25039C9.22735 6.99365 9.12276 6.7417 8.94112 6.56006Z" fill="#795B39"/>
</g>
<path d="M38.9171 32.3957L38.8735 32.3962C38.2957 32.4041 37.8337 32.8708 37.8419 33.4386C37.85 34.0014 38.3168 34.452 38.8878 34.452C38.8927 34.452 38.8978 34.452 38.9027 34.4519L38.9464 34.4514C39.5241 34.4435 39.9861 33.9769 39.9779 33.4092C39.9698 32.8414 39.4942 32.3846 38.9171 32.3957Z" fill="#795B39"/>
<defs>
<clipPath id="clip0_1_660">
<rect width="50" height="50" fill="white" transform="translate(2 1)"/>
</clipPath>
</defs>
</svg>
