<svg width="60" height="60" viewBox="0 0 60 60" fill="none" xmlns="http://www.w3.org/2000/svg">
<ellipse cx="35.1153" cy="35.1508" rx="24.8848" ry="24.849" fill="#FFF1E1"/>
<path d="M51.3686 32.3216C47.4333 30.5796 43.1095 29.6645 38.7276 29.6327C41.8838 27.4728 44.6436 24.6963 46.8011 21.4933C47.038 21.1416 47.0612 20.6718 46.8602 20.2948C46.6592 19.9179 46.2723 19.7048 45.8724 19.751C42.2269 20.1741 38.6332 21.3723 35.3303 23.2515C37.7614 18.7911 39.3932 13.9056 40.0909 8.95382C40.154 8.50587 39.957 8.06178 39.5947 7.83516C39.2323 7.60854 38.7788 7.64584 38.4522 7.92911C34.8597 11.044 31.7656 15.0178 29.4144 19.518C29.5391 12.6976 28.5842 5.24559 26.946 0.699976C26.7938 0.277878 26.4182 0 25.9999 0C25.5816 0 25.206 0.277878 25.0538 0.699976C23.4156 5.24548 22.4608 12.6976 22.5854 19.518C20.2341 15.0178 17.1401 11.0441 13.5476 7.92911C13.2211 7.64584 12.7674 7.60865 12.4051 7.83516C12.0429 8.06166 11.8458 8.50587 11.9089 8.95382C12.6065 13.9056 14.2385 18.7911 16.6695 23.2515C13.3666 21.3723 9.77285 20.174 6.12737 19.751C5.72843 19.7052 5.34056 19.9179 5.13957 20.2948C4.93858 20.6717 4.96184 21.1415 5.19868 21.4933C7.35607 24.6961 10.1162 27.4728 13.2722 29.6327C8.89068 29.6646 4.56615 30.5797 0.631211 32.3216C0.249539 32.4907 0 32.8931 0 33.3399C0 33.7868 0.249539 34.1892 0.631414 34.3582C4.57478 36.1038 8.89058 37.0171 13.2709 37.0478C10.1153 39.2063 7.36064 41.9772 5.19878 45.1867C4.96194 45.5383 4.93868 46.0081 5.13967 46.3851C5.34066 46.7622 5.72873 46.9755 6.12747 46.9289C8.93963 46.6025 11.7137 45.8208 14.3724 44.6054C14.8893 44.3692 15.1314 43.7239 14.9132 43.1641C14.6952 42.6044 14.099 42.3421 13.5827 42.5784C11.9158 43.3403 10.2012 43.9192 8.46077 44.3086C10.8129 41.4484 13.7069 39.065 16.9463 37.3364C17.5045 37.0388 17.7783 36.3775 17.6123 35.7286C17.4465 35.0804 16.8986 34.6669 16.2789 34.7229C12.1083 35.1009 7.93061 34.6236 4.04422 33.3402C7.7609 32.114 11.7536 31.6221 15.7422 31.9131C16.4041 31.9615 16.9909 31.5123 17.1689 30.8209C17.3475 30.1277 17.0592 29.4127 16.4684 29.0822C13.426 27.3799 10.697 25.0877 8.46239 22.3723C11.8822 23.1392 15.1961 24.634 18.1673 26.7638C18.7044 27.1489 19.3929 27.0687 19.8415 26.5693C20.2908 26.0693 20.346 25.3208 19.9757 24.7492C17.395 20.7644 15.5259 16.322 14.4908 11.7486C17.4405 14.8115 19.9395 18.5194 21.8021 22.6192C22.1291 23.3388 22.8565 23.6979 23.5708 23.4913C24.2846 23.2854 24.7506 22.5827 24.7038 21.7829C24.3708 16.0953 24.892 9.63026 26 4.80215C27.108 9.63048 27.6292 16.0954 27.2962 21.7831C27.2494 22.583 27.7154 23.2856 28.4292 23.4915C29.1441 23.698 29.871 23.339 30.198 22.6193C32.0605 18.5195 34.5595 14.8116 37.5092 11.7488C36.4742 16.3221 34.605 20.7646 32.0243 24.7494C31.654 25.321 31.7092 26.0695 32.1585 26.5695C32.6073 27.0689 33.2957 27.1491 33.8326 26.764C36.8039 24.6343 40.1178 23.1394 43.5376 22.3725C41.303 25.088 38.574 27.3802 35.5317 29.0823C34.9408 29.4129 34.6525 30.1279 34.8311 30.8211C35.0092 31.5126 35.5982 31.9614 36.2576 31.9133C40.247 31.6224 44.2393 32.1141 47.9558 33.3405C44.0694 34.6238 39.8917 35.1005 35.721 34.7231C35.1021 34.6667 34.5535 35.0806 34.3877 35.7288C34.2216 36.3778 34.4955 37.039 35.0534 37.3365C38.2921 39.0647 41.1854 41.4472 43.5371 44.3063C37.0297 42.8409 31.0078 38.7418 27.0222 32.9833V30.3221C27.0222 29.7146 26.5674 29.222 26.0066 29.222C25.4458 29.222 24.991 29.7146 24.991 30.3221V32.966C23.4928 35.1352 21.7052 37.0834 19.6723 38.759C19.2259 39.1268 19.1394 39.817 19.4791 40.3006C19.8188 40.7842 20.4559 40.8779 20.9024 40.5099C22.393 39.2813 23.7598 37.914 24.9911 36.4288V50.8166C24.9911 51.424 25.4459 51.9166 26.0067 51.9166C26.5675 51.9166 27.0223 51.424 27.0223 50.8166V36.442C29.0958 38.9351 31.565 41.1048 34.2827 42.8036C37.8558 45.0372 41.8636 46.4637 45.8726 46.9289C45.9089 46.9331 45.9451 46.9352 45.9811 46.9352C46.3409 46.9352 46.6776 46.7278 46.8603 46.3851C47.0613 46.0081 47.0381 45.5384 46.8012 45.1867C44.6395 41.9771 41.8849 39.2064 38.7291 37.0478C43.1091 37.0169 47.4255 36.1037 51.3686 34.3582C51.7505 34.1892 52 33.7868 52 33.3399C52 32.8931 51.7505 32.4907 51.3686 32.3216Z" fill="#795B39"/>
</svg>
