<svg width="60" height="60" viewBox="0 0 60 60" fill="none" xmlns="http://www.w3.org/2000/svg">
<ellipse cx="34.2856" cy="34.7368" rx="25.7143" ry="25.2632" fill="#FFF1E1"/>
<g clip-path="url(#clip0_1_643)">
<path d="M39.4329 11.3873C39.0236 10.9865 38.3612 10.9876 37.9532 11.3896L37.9077 11.4346C37.4999 11.8367 37.5009 12.4876 37.9102 12.8884C38.1145 13.0883 38.3816 13.1883 38.6488 13.1883C38.9172 13.1883 39.1855 13.0875 39.3899 12.886L39.4354 12.8411C39.8433 12.439 39.8422 11.7881 39.4329 11.3873Z" fill="#795B39"/>
<path d="M44.6327 17.9499C48.6266 14.026 51.6981 9.19096 53.5153 3.96731C53.6443 3.59632 53.5473 3.18535 53.265 2.90801C52.9827 2.63066 52.5645 2.53548 52.1867 2.66212C47.9929 4.07031 44.121 6.19057 40.6783 8.96429C40.2314 9.32428 40.1662 9.97199 40.5326 10.4109C40.899 10.85 41.5583 10.9142 42.0051 10.554C44.6596 8.41547 47.584 6.68861 50.7233 5.40377C47.1806 13.7279 40.3353 20.453 31.8625 23.9336C33.1373 20.9277 34.8405 18.1203 36.9422 15.5645C37.3054 15.1229 37.2354 14.4757 36.7859 14.1189C36.3363 13.7618 35.6776 13.8307 35.3145 14.2724C32.5754 17.6031 30.4751 21.3374 29.0718 25.3714C29.057 25.4139 29.0461 25.457 29.0371 25.5002C28.6904 25.8338 28.3426 26.166 27.9934 26.4966C29.0219 23.4011 29.5573 20.1292 29.5573 16.8588C29.5573 12.2495 28.4951 7.637 26.4855 3.51974C26.3114 3.16314 25.9446 2.93627 25.5421 2.93627C25.1396 2.93627 24.7726 3.16314 24.5986 3.51974C22.589 7.637 21.5269 12.2495 21.5269 16.8588C21.5269 21.3194 22.5217 25.7828 24.4073 29.7977C22.3811 31.6111 20.3131 33.3763 18.2065 35.0916C19.2913 31.7851 19.8559 28.2951 19.8559 24.8066C19.8559 19.8318 18.7095 14.8537 16.5406 10.4101C16.3665 10.0535 15.9996 9.82664 15.5971 9.82664C15.1946 9.82664 14.8277 10.0535 14.6536 10.4101C12.4848 14.8537 11.3383 19.8318 11.3383 24.8066C11.3383 29.4291 12.3288 34.0544 14.2091 38.2512C12.0359 39.9174 9.82472 41.531 7.57872 43.0902C8.49539 40.2818 8.97324 37.3194 8.97324 34.3581C8.97324 30.115 7.99536 25.8688 6.14527 22.0785C5.97127 21.7219 5.60443 21.495 5.20182 21.495C4.7992 21.495 4.43236 21.7219 4.25836 22.0785C2.40827 25.8688 1.43039 30.115 1.43039 34.3581C1.43039 38.2332 2.2484 42.1096 3.79903 45.6402C2.70208 46.3595 1.59791 47.0666 0.485785 47.7599C-0.00210873 48.0641 -0.146604 48.6993 0.162999 49.1786C0.362216 49.4872 0.701116 49.656 1.04744 49.656C1.23923 49.656 1.43322 49.6043 1.60711 49.4958C2.75293 48.7815 3.89048 48.0526 5.02038 47.311C8.84234 49.0857 13.1108 50.0246 17.3768 50.0246C21.6956 50.0246 26.0177 49.0639 29.8758 47.2464C30.2387 47.0754 30.4697 46.715 30.4697 46.3195C30.4697 45.9239 30.2387 45.5635 29.8758 45.3926C26.0177 43.5749 21.6957 42.6143 17.3768 42.6143C15.1583 42.6143 12.9394 42.8697 10.7824 43.3626C12.3788 42.2211 13.957 41.0524 15.5158 39.8569C19.6116 41.72 24.1683 42.7032 28.7217 42.7032C33.4131 42.7032 38.108 41.6597 42.2988 39.6853C42.6618 39.5143 42.8927 39.1539 42.8927 38.7584C42.8927 38.3628 42.6618 38.0024 42.2988 37.8315C38.1081 35.8571 33.4132 34.8135 28.7217 34.8135C25.9493 34.8135 23.1757 35.1782 20.5057 35.8838C22.1773 34.5031 23.8244 33.0911 25.4453 31.6486C28.2986 32.9366 31.3331 33.7928 34.474 34.1939C34.5198 34.1998 34.5652 34.2026 34.6102 34.2026C35.128 34.2026 35.5779 33.825 35.6465 33.307C35.721 32.744 35.3168 32.2283 34.7438 32.1551C32.4517 31.8625 30.2202 31.3106 28.0837 30.5096C34.7855 28.006 42.3311 28.006 49.033 30.5096C46.9299 31.298 44.7346 31.8451 42.48 32.1412C41.9073 32.2165 41.5051 32.7337 41.5817 33.2963C41.6583 33.8591 42.1849 34.2532 42.7574 34.179C46.0282 33.7493 49.1834 32.8263 52.1354 31.4355C52.4983 31.2646 52.7293 30.9042 52.7293 30.5086C52.7293 30.1131 52.4983 29.7527 52.1354 29.5817C47.9447 27.6073 43.2498 26.5639 38.5583 26.5639C35.5227 26.5639 32.4858 27.0014 29.5849 27.8446C30.0697 27.3847 30.5523 26.9225 31.0319 26.4571C36.1069 24.6495 40.7976 21.7179 44.6327 17.9499ZM5.20202 43.5614C2.97841 37.6612 2.97841 31.0555 5.20202 25.1555C7.42564 31.0554 7.42564 37.6611 5.20202 43.5614ZM26.7443 46.3198C20.7388 48.5044 14.0151 48.5044 8.00969 46.3198C14.0151 44.1352 20.7389 44.1352 26.7443 46.3198ZM15.5973 36.1739C12.7267 28.9128 12.7267 20.7005 15.5973 13.4394C18.4679 20.7005 18.4679 28.9128 15.5973 36.1739ZM39.1942 38.7587C32.4933 41.2615 24.9505 41.2615 18.2496 38.7587C24.9506 36.2557 32.4933 36.2557 39.1942 38.7587ZM25.5423 27.1473C22.9949 20.5646 22.9952 13.1532 25.5423 6.57029C28.0893 13.1533 28.0896 20.5647 25.5423 27.1473Z" fill="#795B39"/>
<path d="M38.9171 32.3957L38.8735 32.3962C38.2957 32.4041 37.8337 32.8708 37.8419 33.4386C37.85 34.0014 38.3168 34.452 38.8878 34.452C38.8927 34.452 38.8978 34.452 38.9027 34.4519L38.9464 34.4514C39.5241 34.4435 39.9861 33.9769 39.9779 33.4092C39.9698 32.8414 39.4942 32.3846 38.9171 32.3957Z" fill="#795B39"/>
</g>
<defs>
<clipPath id="clip0_1_643">
<rect width="53.5714" height="52.6316" fill="white"/>
</clipPath>
</defs>
</svg>
