<svg width="60" height="60" viewBox="0 0 60 60" fill="none" xmlns="http://www.w3.org/2000/svg">
<ellipse cx="34.2856" cy="34.7368" rx="25.7143" ry="25.2632" fill="#FFF1E1"/>
<g clip-path="url(#clip0_1_688)">
<path d="M46.4574 32.0197C46.1097 30.9555 45.297 30.2964 44.6366 29.9189C44.9194 28.9918 45.1626 27.5358 44.5287 26.2057C43.9218 24.9322 42.6964 24.091 40.8865 23.7054C38.9495 23.2928 36.9887 23.8127 35.242 24.6805C36.841 21.4247 37.0174 18.3848 35.7722 15.8109C36.1643 15.2656 36.5493 14.7448 36.9214 14.2545C40.5148 9.51901 43.7477 6.38152 43.78 6.35037C44.1679 5.97576 44.1787 5.3576 43.8041 4.96961C43.4295 4.58172 42.8114 4.57078 42.4234 4.9452C42.2881 5.07576 39.0683 8.19851 35.3861 13.0466C35.1425 13.3675 34.8931 13.7018 34.6402 14.0461C32.4024 11.299 29.9786 11.7184 28.9879 12.0546C27.6295 12.5154 26.4839 13.5955 25.9063 14.8194C24.7588 14.0608 23.4025 13.7574 22.0555 13.9951C20.2301 14.3168 18.7191 15.5813 18.1125 17.2953C17.6922 18.4825 17.7756 19.5187 18.1771 20.6042C17.4193 20.2138 16.6054 19.942 15.7381 19.844C13.8997 19.6358 12.4706 20.0457 11.4915 21.0615C10.4688 22.1221 10.2382 23.5803 10.2127 24.5492C9.46658 24.698 8.48689 25.0657 7.81961 25.9644C6.94276 27.1452 6.88114 28.828 7.63611 30.966C8.24353 32.686 9.57498 34.0017 11.0959 34.9947C9.33494 35.3381 7.40906 36.0602 6.53856 37.5691C5.67577 39.0646 5.86131 40.9307 7.01131 42.3228C7.84324 43.33 9.31795 44.1851 11.2154 44.0179C11.147 45.931 11.8454 47.6753 13.1309 48.6158C13.5974 48.9571 14.3659 49.3511 15.4255 49.3511C16.2708 49.3511 17.3013 49.1004 18.5118 48.372C22.8945 45.7345 24.816 42.4794 24.8955 42.3423C25.1658 41.8765 25.0075 41.2811 24.5424 41.0097C24.0773 40.7384 23.4798 40.8956 23.2074 41.36C23.1901 41.3895 21.4325 44.3348 17.5046 46.6985C16.5819 47.254 15.274 47.7634 14.284 47.0394C13.316 46.3311 12.9181 44.6699 13.3165 42.9995C13.3992 42.6527 13.2862 42.2885 13.0219 42.0491C12.7577 41.8099 12.3839 41.7338 12.0471 41.8502C10.6382 42.3379 9.31873 42.0496 8.51717 41.0791C7.88211 40.3103 7.77225 39.3394 8.23035 38.5452C9.14607 36.9578 12.9248 36.6354 14.4101 36.6429C16.4038 37.3991 18.0773 37.7002 18.2324 37.7271C18.2888 37.7369 18.345 37.7416 18.4004 37.7416C18.423 37.7416 18.4454 37.7401 18.4676 37.7386C19.5771 38.0494 20.4759 38.1171 20.5676 38.1233C20.5901 38.125 20.6125 38.1256 20.6348 38.1256C21.144 38.1256 21.5731 37.7308 21.6081 37.2152C21.6448 36.6771 21.2381 36.2113 20.7 36.1748C20.6573 36.1719 16.4116 35.8174 15.9149 33.4199C15.7782 32.7595 15.7032 31.8515 16.123 31.2758C16.476 30.7917 17.0699 30.6998 17.1372 30.6908C17.6571 30.6614 18.036 30.2253 18.0311 29.7036C18.0276 29.3284 18.1534 28.2184 18.7697 27.5951C19.1127 27.2483 19.5771 27.0791 20.1891 27.0781C20.1902 27.0781 20.1912 27.0781 20.1921 27.0781C22.1895 27.0781 23.5129 30.3882 23.8543 31.6643C23.9928 32.185 24.5269 32.4951 25.0482 32.357C25.4016 32.2634 25.6576 31.9874 25.7432 31.6569C25.6592 32.1558 25.9719 32.6427 26.471 32.7661C26.5497 32.7856 26.6285 32.7948 26.7062 32.7948C27.1447 32.7948 27.5434 32.4974 27.6534 32.0525C27.6699 31.9861 27.688 31.92 27.7049 31.8538C27.7637 32.0424 27.8791 32.2152 28.0491 32.343C28.4801 32.6673 29.0923 32.5809 29.4164 32.1496C30.1569 31.1653 32.6876 28.5259 34.5375 29.281C35.1043 29.5123 35.4708 29.8439 35.6581 30.2945C35.9945 31.1037 35.6933 32.1795 35.5506 32.5215C35.3436 33.0044 35.5315 33.5525 36.0054 33.7768C36.0644 33.8105 36.58 34.1192 36.7249 34.7006C36.8972 35.392 36.4859 36.205 36.1107 36.7653C34.7562 38.7877 30.6799 37.5293 30.6404 37.5166C30.1283 37.348 29.5761 37.6264 29.4074 38.1388C29.2387 38.651 29.5173 39.203 30.0296 39.3717C30.1327 39.4057 31.3112 39.7837 32.767 39.8592C32.7955 39.8661 32.8242 39.8724 32.8538 39.8768C32.9863 39.897 34.2277 40.0779 35.9109 40.0779C36.2024 40.0779 36.5076 40.0721 36.8223 40.0595C38.2313 40.5216 41.7145 42.0193 42.0815 43.822C42.2644 44.7203 41.8525 45.6064 41.0066 46.1344C39.9392 46.801 38.5959 46.6564 37.4143 45.7474C37.1315 45.5299 36.7528 45.484 36.4266 45.6273C36.1 45.7706 35.8776 46.0803 35.8462 46.4354C35.6947 48.1461 34.7909 49.5956 33.6484 49.9606C32.4799 50.3342 31.401 49.436 30.7018 48.6169C27.7245 45.1296 26.9858 41.8074 26.9792 41.7766C26.8687 41.2488 26.3516 40.9106 25.8232 41.021C25.2953 41.1316 24.957 41.6492 25.0675 42.177C25.0998 42.3311 25.8961 45.9959 29.2163 49.8851C30.6542 51.5692 32.0444 52.0002 33.0908 52.0001C33.5488 52.0001 33.9413 51.9174 34.2427 51.8212C35.76 51.3365 36.975 49.9033 37.5164 48.0671C39.2621 48.8271 40.9328 48.4832 42.0409 47.7915C43.5727 46.8353 44.3398 45.1242 43.9954 43.4324C43.6478 41.7254 42.0497 40.4303 40.4881 39.5467C42.2455 39.0867 43.9254 38.2607 45.0466 36.8217C46.4402 35.0333 46.9149 33.4177 46.4574 32.0197ZM20.1925 25.1247C20.1905 25.1247 20.1879 25.1247 20.1858 25.1247C19.0518 25.1268 18.0776 25.5104 17.3685 26.2342C16.5371 27.0831 16.2397 28.1966 16.1344 28.9421C15.6492 29.1203 15.0469 29.4563 14.573 30.0868C13.8744 31.0164 13.6824 32.271 14.0024 33.8159C14.0474 34.0332 14.1081 34.2391 14.1811 34.4352C12.1451 33.5301 10.1352 32.1776 9.47771 30.3156C8.96179 28.8548 8.92879 27.7553 9.3822 27.1359C9.94187 26.3714 11.176 26.4026 11.1821 26.4028C11.4734 26.4163 11.7538 26.2974 11.9494 26.0822C12.1451 25.8669 12.2342 25.5738 12.1932 25.2858C12.1906 25.2671 11.9381 23.4044 12.9025 22.4118C13.4383 21.8601 14.3187 21.6494 15.5186 21.7847C17.4882 22.0073 19.1828 23.5046 20.4734 25.1359C20.381 25.1291 20.2876 25.1247 20.1925 25.1247ZM25.7625 31.5644C25.783 31.4343 25.7781 31.2982 25.7421 31.1627C25.7188 31.0745 25.5015 30.2767 25.0536 29.2883C25.0524 29.167 25.0291 29.0439 24.9799 28.9249C24.9339 28.8138 24.547 27.8947 23.8533 26.6798C23.0413 25.1687 22.272 23.9237 21.6506 22.9182C20.087 20.3888 19.4716 19.308 19.9535 17.9469C20.3257 16.8955 21.261 16.1182 22.3944 15.9185C23.6287 15.7008 24.8455 16.1927 25.7313 17.2678C26.0008 17.5951 26.4508 17.7109 26.8447 17.5547C27.2388 17.3985 27.4871 17.006 27.4594 16.5831C27.4004 15.6836 28.3099 14.3469 29.6151 13.9042C30.9557 13.4491 32.3124 14.0908 33.4515 15.7112C30.4552 20.0332 27.2191 25.6913 25.7625 31.5644ZM30.6109 27.9953C29.8086 28.7461 29.3114 29.3121 29.2435 29.3904C29.1931 29.4484 29.1518 29.5111 29.1174 29.5762C28.5821 30.0931 28.1888 30.5575 27.9922 30.8016C29.3851 26.0485 31.9316 21.4721 34.4173 17.7619C35.6453 22.4268 31.1268 27.4428 30.6109 27.9953ZM43.5063 35.6211C42.2142 37.2795 39.7735 37.8811 37.5857 38.0584C37.6364 37.9916 37.6861 37.9234 37.734 37.8521C38.6119 36.5412 38.9062 35.3067 38.6089 34.1825C38.4071 33.4198 37.9755 32.882 37.5931 32.5341C37.7762 31.8037 37.9197 30.6604 37.469 29.5611C37.0845 28.6235 36.3264 27.9014 35.2765 27.4727C35.0625 27.3853 34.8485 27.3204 34.6351 27.2745C36.3906 26.1116 38.5063 25.1956 40.4797 25.6157C41.6609 25.8673 42.4289 26.3462 42.7624 27.0393C43.3626 28.2864 42.5329 29.9731 42.5261 29.9868C42.3934 30.2471 42.3842 30.5531 42.5011 30.8209C42.6179 31.0888 42.8485 31.2901 43.1297 31.3698C43.1413 31.3732 44.3119 31.7413 44.6017 32.6269C44.8411 33.3585 44.4624 34.3941 43.5063 35.6211Z" fill="#795B39"/>
<path d="M45.5859 3.0001C45.4053 2.81846 45.1533 2.71484 44.8965 2.71484C44.6387 2.71484 44.3877 2.81846 44.2061 3.0001C44.0234 3.18164 43.9199 3.43359 43.9199 3.6914C43.9199 3.94834 44.0234 4.19921 44.2061 4.38183C44.3877 4.56347 44.6387 4.66699 44.8965 4.66699C45.1533 4.66699 45.4053 4.56347 45.5859 4.38183C45.7686 4.19921 45.873 3.94834 45.873 3.6914C45.873 3.43359 45.7686 3.18262 45.5859 3.0001Z" fill="#795B39"/>
<path d="M46.7559 5.92285C46.5742 5.74121 46.3223 5.63672 46.0654 5.63672C45.8076 5.63672 45.5566 5.74111 45.374 5.92285C45.1925 6.10449 45.0889 6.35635 45.0889 6.61328C45.0889 6.87011 45.1925 7.12207 45.374 7.30361C45.5566 7.48525 45.8076 7.58984 46.0654 7.58984C46.3223 7.58984 46.5742 7.48535 46.7559 7.30361C46.9374 7.12207 47.042 6.87011 47.042 6.61328C47.042 6.35635 46.9375 6.10449 46.7559 5.92285Z" fill="#795B39"/>
<path d="M44.8721 7.83896C44.6904 7.65732 44.4385 7.55273 44.1816 7.55273C43.9248 7.55273 43.6729 7.65732 43.4913 7.83896C43.3097 8.02051 43.2051 8.27158 43.2051 8.52929C43.2051 8.78623 43.3096 9.03808 43.4913 9.21972C43.6728 9.40136 43.9248 9.50585 44.1816 9.50585C44.4385 9.50585 44.6904 9.40146 44.8721 9.21972C45.0537 9.03711 45.1582 8.78623 45.1582 8.52929C45.1582 8.27246 45.0538 8.02051 44.8721 7.83896Z" fill="#795B39"/>
<path d="M42.7538 10.0469C42.5712 9.86436 42.3203 9.76074 42.0635 9.76074C41.8057 9.76084 41.5537 9.86436 41.3721 10.0469C41.1904 10.2285 41.0869 10.4796 41.0869 10.7373C41.0869 10.9941 41.1904 11.2461 41.3721 11.4277C41.5536 11.6093 41.8056 11.7139 42.0635 11.7139C42.3203 11.7139 42.5712 11.6094 42.7538 11.4277C42.9354 11.2461 43.04 10.9941 43.04 10.7373C43.04 10.4805 42.9355 10.2285 42.7538 10.0469Z" fill="#795B39"/>
<path d="M42.6317 2.28613C42.4502 2.10449 42.1982 2 41.9414 2C41.6846 2 41.4326 2.10439 41.251 2.28613C41.0693 2.46787 40.9648 2.71972 40.9648 2.97656C40.9648 3.2334 41.0692 3.48535 41.251 3.66689C41.4326 3.84863 41.6846 3.95312 41.9414 3.95312C42.1982 3.95312 42.4502 3.84863 42.6317 3.66689C42.8134 3.48535 42.918 3.2334 42.918 2.97656C42.918 2.71972 42.8135 2.46777 42.6317 2.28613Z" fill="#795B39"/>
<path d="M40.7479 4.20215C40.5664 4.02051 40.3153 3.91602 40.0576 3.91602C39.8008 3.91602 39.5488 4.02041 39.3672 4.20215C39.1855 4.38389 39.0811 4.63476 39.0811 4.89258C39.0811 5.14941 39.1855 5.40136 39.3672 5.58291C39.5488 5.76464 39.8008 5.86913 40.0576 5.86913C40.3154 5.86913 40.5664 5.76464 40.7479 5.58291C40.9306 5.40136 41.0342 5.14941 41.0342 4.89258C41.0342 4.63467 40.9306 4.38379 40.7479 4.20215Z" fill="#795B39"/>
<path d="M38.6299 6.41025C38.4482 6.22764 38.1963 6.12402 37.9394 6.12402C37.6826 6.12402 37.4307 6.22764 37.249 6.41025C37.0675 6.5918 36.9629 6.84287 36.9629 7.10058C36.9629 7.35742 37.0674 7.60937 37.249 7.79101C37.4307 7.97275 37.6826 8.07714 37.9394 8.07714C38.1963 8.07714 38.4482 7.97275 38.6299 7.79101C38.8114 7.60937 38.916 7.35742 38.916 7.10058C38.916 6.84375 38.8115 6.5918 38.6299 6.41025Z" fill="#795B39"/>
<path d="M40.6913 12.0928C40.5098 11.9102 40.2578 11.8066 40.001 11.8066C39.7441 11.8066 39.4922 11.9101 39.3105 12.0928C39.1289 12.2744 39.0244 12.5255 39.0244 12.7832C39.0244 13.04 39.1288 13.292 39.3105 13.4736C39.4922 13.6552 39.7441 13.7598 40.001 13.7598C40.2578 13.7598 40.5098 13.6553 40.6913 13.4736C40.8729 13.292 40.9775 13.04 40.9775 12.7832C40.9775 12.5254 40.873 12.2744 40.6913 12.0928Z" fill="#795B39"/>
<path d="M37.8501 6.97154C37.654 6.77548 37.3829 6.66357 37.1045 6.66357C36.8271 6.66357 36.555 6.77548 36.3589 6.97154C36.1628 7.16876 36.0498 7.43982 36.0498 7.71825C36.0498 7.99563 36.1627 8.26774 36.3589 8.46391C36.556 8.65997 36.8271 8.77293 37.1045 8.77293C37.383 8.77293 37.654 8.66008 37.8501 8.46391C38.0474 8.26774 38.1592 7.99563 38.1592 7.71825C38.1592 7.44087 38.0474 7.16876 37.8501 6.97154Z" fill="#795B39"/>
</g>
<defs>
<clipPath id="clip0_1_688">
<rect width="53.5714" height="52.6316" fill="white"/>
</clipPath>
</defs>
</svg>
