<svg width="50" height="50" viewBox="0 0 50 50" fill="none" xmlns="http://www.w3.org/2000/svg">
<g clip-path="url(#clip0_18_358)">
<path fill-rule="evenodd" clip-rule="evenodd" d="M40.1387 0.5C40.9397 0.5 41.5889 1.14919 41.5889 1.9502V21.1921C46.6513 23.7247 50 28.9242 50 34.7971C50 43.1931 43.1931 50 34.7971 50C28.9242 50 23.7247 46.6513 21.1921 41.5889H1.9502C1.14919 41.5889 0.5 40.9397 0.5 40.1387V1.9502C0.5 1.14919 1.14919 0.5 1.9502 0.5H40.1387ZM27.957 3.40039V11.5275C27.957 12.5702 26.8445 13.3727 25.7579 12.7693L21.0444 10.3742L16.2335 12.8191C15.2678 13.3082 14.1345 12.5944 14.1352 11.5275L14.1318 3.40039H3.40039V38.6885H20.0973C18.6935 33.3734 20.2721 27.8222 24.0472 24.0472C27.8222 20.2721 33.3734 18.6935 38.6885 20.0973V3.40039H27.957ZM30.1807 41.2021H36.9479C38.4932 41.2021 39.8955 40.5726 40.9106 39.5571C41.9779 38.4902 42.5557 37.108 42.5557 35.4984C42.5557 32.4077 40.0386 29.8906 36.9479 29.8906H32.9179L33.7691 29.0379C35.1102 27.6889 33.0595 25.6499 31.7185 26.9985L28.3925 30.3306C27.8294 30.8967 27.8316 31.8125 28.3981 32.3756L31.7306 35.7016C33.0792 37.0427 35.1185 34.992 33.7699 33.6509L32.9081 32.791H36.9479C38.5182 32.791 39.6553 34.0463 39.6553 35.5943C39.6553 37.0838 38.4373 38.3018 36.9479 38.3018H30.1807C29.3797 38.3018 28.7305 38.9509 28.7305 39.752C28.7305 40.553 29.3797 41.2021 30.1807 41.2021ZM26.0978 26.0978C21.2937 30.9024 21.2937 38.6923 26.0978 43.4964C30.9024 48.3009 38.6923 48.3009 43.4964 43.4964C48.3009 38.6923 48.3009 30.9024 43.4964 26.0978C38.6923 21.2937 30.902 21.2937 26.0978 26.0978ZM25.0566 3.40039H17.0322V9.16794L20.3896 7.46169C20.7857 7.26078 21.2688 7.24454 21.6959 7.4598L25.0566 9.16794V3.40039Z" fill="#FFE0B4" fill-opacity="0.7"/>
</g>
<defs>
<clipPath id="clip0_18_358">
<rect width="49.5" height="49.5" fill="white" transform="translate(0.5 0.5)"/>
</clipPath>
</defs>
</svg>
