<svg width="50" height="49" viewBox="0 0 50 49" fill="none" xmlns="http://www.w3.org/2000/svg">
<path d="M48.9766 8.28438L25.4051 0.0690632C25.1429 -0.0230211 24.8572 -0.0230211 24.5951 0.0690632L1.0235 8.28438C0.782356 8.36848 0.573384 8.52558 0.425587 8.73385C0.27779 8.94213 0.198502 9.19125 0.198731 9.44664L0.198731 39.0666C0.198502 39.3219 0.27779 39.5711 0.425587 39.7793C0.573384 39.9876 0.782356 40.1447 1.0235 40.2288L24.5972 48.4441H24.6007C24.8613 48.5384 25.1466 48.5384 25.4072 48.4441L48.9766 40.2288C49.2178 40.1447 49.4267 39.9876 49.5745 39.7793C49.7223 39.5711 49.8016 39.3219 49.8014 39.0666V9.44664C49.8016 9.19125 49.7223 8.94213 49.5745 8.73385C49.4267 8.52558 49.2178 8.36848 48.9766 8.28438ZM25.0001 2.53422L44.8345 9.44664L41.3576 10.6581L21.5231 3.7457L25.0001 2.53422ZM17.7839 5.04859L37.6183 11.961L32.8047 13.638L12.9766 6.72555L17.7839 5.04859ZM34.038 15.8148L40.1271 13.6928V22.7772L37.6162 21.5678C37.3709 21.4497 37.0932 21.4162 36.8268 21.4727C36.5604 21.5292 36.3202 21.6724 36.1439 21.88L34.0345 24.3627L34.038 15.8148ZM9.23389 8.02844L29.0676 14.9416L25.0001 16.3584L5.16561 9.44664L9.23389 8.02844ZM2.65756 11.1784L23.7696 18.5352V45.5508L2.65756 38.1926V11.1784ZM26.2305 45.5508V18.5352L31.5743 16.6727V27.7117C31.5728 27.9646 31.6493 28.2118 31.7933 28.4196C31.9374 28.6275 32.142 28.7859 32.3792 28.8734C32.6165 28.9608 32.875 28.973 33.1195 28.9084C33.3639 28.8437 33.5825 28.7052 33.7455 28.5119L37.4018 24.1982L40.8204 25.8435C41.008 25.9337 41.2153 25.9749 41.4232 25.9633C41.631 25.9516 41.8325 25.8874 42.0087 25.7767C42.185 25.666 42.3304 25.5124 42.4312 25.3303C42.532 25.1482 42.585 24.9435 42.5852 24.7354V12.8322L47.3398 11.1756V38.1926L26.2305 45.5508Z" fill="#FFE0B4" fill-opacity="0.7"/>
</svg>
