<svg width="52" height="49" viewBox="0 0 52 49" fill="none" xmlns="http://www.w3.org/2000/svg">
<path d="M47.2207 4.79317C41.3294 -1.13137 31.6067 -0.836858 25.9976 5.32148C20.388 -0.83664 10.6657 -1.13148 4.7744 4.79328C-1.08398 10.6275 -0.884407 20.2346 5.15175 25.8656C2.06364 28.815 3.83277 34.1148 8.03603 34.6315C7.78425 37.5097 10.234 40.149 13.1317 40.1001C13.3093 43.2685 16.4894 45.5365 19.5383 44.6992C20.5386 48.474 25.347 49.7639 28.1056 46.9857C29.6723 45.4283 30.9183 44.4462 30.9977 42.0875C33.5865 42.0154 35.8264 39.7451 35.8659 37.1578C38.4795 37.1175 40.7567 34.8396 40.7969 32.2267C43.5083 32.1855 45.8593 29.7383 45.733 26.9756L47.2205 25.4883C52.9263 19.7826 52.9263 10.4987 47.2207 4.79317ZM7.39458 28.2471L8.79171 26.85C9.15282 26.4888 9.62696 26.3083 10.1013 26.3083C11.7278 26.2976 12.5767 28.3084 11.4107 29.4689L10.0136 30.8661C8.20509 32.531 5.72943 30.0563 7.39458 28.2471ZM11.2903 34.9809C11.2903 34.4862 11.483 34.0211 11.8327 33.6713L13.2306 32.2735C13.5803 31.9242 14.045 31.7318 14.5393 31.7318C16.1796 31.729 17.0111 33.7352 15.8488 34.8933L14.6161 36.126C14.2393 36.5531 13.7217 36.8421 13.1421 36.8328C12.1469 36.8533 11.2697 35.9764 11.2903 34.9809ZM16.9282 41.0571C16.2098 40.3678 16.2098 39.1275 16.9282 38.4382L18.161 37.2053C18.8797 36.3521 20.1415 36.241 20.9445 37.041C21.6665 37.7631 21.6665 38.9377 20.9445 39.66L19.5472 41.0572C18.8252 41.7795 17.6503 41.7794 16.9282 41.0571ZM27.1907 43.2764L25.7935 44.6735C25.4438 45.0233 24.9787 45.216 24.484 45.216C23.9893 45.216 23.5242 45.0233 23.1744 44.6735C22.4561 43.9841 22.4558 42.7438 23.1745 42.0545L24.5716 40.6574C25.2936 39.9353 26.4685 39.9353 27.1905 40.6573C27.9091 41.3467 27.9092 42.587 27.1907 43.2764ZM41.9226 28.4211C41.2332 29.1395 39.9929 29.1397 39.3036 28.4211L32.0273 21.1448L29.7151 23.457L36.9915 30.7333C37.7135 31.4554 37.7135 32.6302 36.9915 33.3523C36.2694 34.0746 35.0946 34.0744 34.3725 33.3523L27.2195 26.1994L27.0962 26.076L24.784 28.3881L24.9074 28.5115L32.0603 35.6644C32.7824 36.3866 32.7824 37.5614 32.0603 38.2835C31.3382 39.0056 30.1633 39.0056 29.4412 38.2835L29.4398 38.285C28.1112 37.0005 26.2545 36.5776 24.5774 37.0162C24.0436 34.8348 21.8507 33.1832 19.6454 33.2313C19.5385 30.8833 17.5534 28.7622 15.2076 28.5088C15.5172 24.4802 11.0927 21.7059 7.60113 23.6905C2.73833 19.3467 2.43881 11.7214 7.08678 7.10533C11.708 2.4517 19.3437 2.76005 23.6856 7.63364L19.6434 11.6759L22.8824 14.915C25.3705 17.4033 29.2046 17.7456 32.0633 15.9424L41.9229 25.8022C42.6446 26.5242 42.6446 27.699 41.9226 28.4211ZM44.9086 23.1761L44.4104 23.6742C44.3536 23.6116 44.295 23.5502 44.2349 23.49L32.1918 11.4468L31.0356 12.6028C29.4253 14.2131 26.805 14.2134 25.1944 12.6028L24.2675 11.6759L28.838 7.10533C39.9406 -3.11348 55.1252 12.0807 44.9086 23.1761Z" fill="#FFE0B4" fill-opacity="0.7"/>
</svg>
