<svg width="54" height="49" viewBox="0 0 54 49" fill="none" xmlns="http://www.w3.org/2000/svg">
<path d="M44.6327 15.9499C48.6266 12.026 51.6981 7.19096 53.5153 1.96731C53.6443 1.59632 53.5473 1.18535 53.265 0.908006C52.9827 0.630664 52.5645 0.535476 52.1867 0.662119C47.9929 2.07031 44.121 4.19057 40.6783 6.96429C40.2314 7.32428 40.1662 7.97199 40.5326 8.41093C40.899 8.84997 41.5583 8.91421 42.0051 8.55402C44.6596 6.41547 47.584 4.68861 50.7233 3.40377C47.1806 11.7279 40.3353 18.453 31.8625 21.9336C33.1373 18.9277 34.8405 16.1203 36.9422 13.5645C37.3054 13.1229 37.2354 12.4757 36.7859 12.1189C36.3363 11.7618 35.6776 11.8307 35.3145 12.2724C32.5754 15.6031 30.4751 19.3374 29.0718 23.3714C29.057 23.4139 29.0461 23.457 29.0371 23.5002C28.6904 23.8338 28.3426 24.166 27.9934 24.4966C29.0219 21.4011 29.5573 18.1292 29.5573 14.8588C29.5573 10.2495 28.4951 5.637 26.4855 1.51974C26.3114 1.16314 25.9446 0.936274 25.5421 0.936274C25.1396 0.936274 24.7726 1.16314 24.5986 1.51974C22.589 5.637 21.5269 10.2495 21.5269 14.8588C21.5269 19.3194 22.5217 23.7828 24.4073 27.7977C22.3811 29.6111 20.3131 31.3763 18.2065 33.0916C19.2913 29.7851 19.8559 26.2951 19.8559 22.8066C19.8559 17.8318 18.7095 12.8537 16.5406 8.41011C16.3665 8.05351 15.9996 7.82664 15.5971 7.82664C15.1946 7.82664 14.8277 8.05351 14.6536 8.41011C12.4848 12.8537 11.3383 17.8318 11.3383 22.8066C11.3383 27.4291 12.3288 32.0544 14.2091 36.2512C12.0359 37.9174 9.82472 39.531 7.57872 41.0902C8.49539 38.2818 8.97324 35.3194 8.97324 32.3581C8.97324 28.115 7.99536 23.8688 6.14527 20.0785C5.97127 19.7219 5.60443 19.495 5.20182 19.495C4.7992 19.495 4.43236 19.7219 4.25836 20.0785C2.40827 23.8688 1.43039 28.115 1.43039 32.3581C1.43039 36.2332 2.2484 40.1096 3.79903 43.6402C2.70208 44.3595 1.59791 45.0666 0.485785 45.7599C-0.00210873 46.0641 -0.146604 46.6993 0.162999 47.1786C0.362216 47.4872 0.701116 47.656 1.04744 47.656C1.23923 47.656 1.43322 47.6043 1.60711 47.4958C2.75293 46.7815 3.89048 46.0526 5.02038 45.311C8.84234 47.0857 13.1108 48.0246 17.3768 48.0246C21.6956 48.0246 26.0177 47.0639 29.8758 45.2464C30.2387 45.0754 30.4697 44.715 30.4697 44.3195C30.4697 43.9239 30.2387 43.5635 29.8758 43.3926C26.0177 41.5749 21.6957 40.6143 17.3768 40.6143C15.1583 40.6143 12.9394 40.8697 10.7824 41.3626C12.3788 40.2211 13.957 39.0524 15.5158 37.8569C19.6116 39.72 24.1683 40.7032 28.7217 40.7032C33.4131 40.7032 38.108 39.6597 42.2988 37.6853C42.6618 37.5143 42.8927 37.1539 42.8927 36.7584C42.8927 36.3628 42.6618 36.0024 42.2988 35.8315C38.1081 33.8571 33.4132 32.8135 28.7217 32.8135C25.9493 32.8135 23.1757 33.1782 20.5057 33.8838C22.1773 32.5031 23.8244 31.0911 25.4453 29.6486C28.2986 30.9366 31.3331 31.7928 34.474 32.1939C34.5198 32.1998 34.5652 32.2026 34.6102 32.2026C35.128 32.2026 35.5779 31.825 35.6465 31.307C35.721 30.744 35.3168 30.2283 34.7438 30.1551C32.4517 29.8625 30.2202 29.3106 28.0837 28.5096C34.7855 26.006 42.3311 26.006 49.033 28.5096C46.9299 29.298 44.7346 29.8451 42.48 30.1412C41.9073 30.2165 41.5051 30.7337 41.5817 31.2963C41.6583 31.8591 42.1849 32.2532 42.7574 32.179C46.0282 31.7493 49.1834 30.8263 52.1354 29.4355C52.4983 29.2646 52.7293 28.9042 52.7293 28.5086C52.7293 28.1131 52.4983 27.7527 52.1354 27.5817C47.9447 25.6073 43.2498 24.5639 38.5583 24.5639C35.5227 24.5639 32.4858 25.0014 29.5849 25.8446C30.0697 25.3847 30.5523 24.9225 31.0319 24.4571C36.1069 22.6495 40.7976 19.7179 44.6327 15.9499ZM5.20202 41.5614C2.97841 35.6612 2.97841 29.0555 5.20202 23.1555C7.42564 29.0554 7.42564 35.6611 5.20202 41.5614ZM26.7443 44.3198C20.7388 46.5044 14.0151 46.5044 8.00969 44.3198C14.0151 42.1352 20.7389 42.1352 26.7443 44.3198ZM15.5973 34.1739C12.7267 26.9128 12.7267 18.7005 15.5973 11.4394C18.4679 18.7005 18.4679 26.9128 15.5973 34.1739ZM39.1942 36.7587C32.4933 39.2615 24.9505 39.2615 18.2496 36.7587C24.9506 34.2557 32.4933 34.2557 39.1942 36.7587ZM25.5423 25.1473C22.9949 18.5646 22.9952 11.1532 25.5423 4.57029C28.0893 11.1533 28.0896 18.5647 25.5423 25.1473Z" fill="#795B39"/>
</svg>
