<svg width="41" height="48" viewBox="0 0 41 48" fill="none" xmlns="http://www.w3.org/2000/svg">
<path d="M40.4574 28.0197C40.1097 26.9555 39.297 26.2964 38.6366 25.9189C38.9194 24.9918 39.1626 23.5358 38.5287 22.2057C37.9218 20.9322 36.6964 20.091 34.8865 19.7054C32.9495 19.2928 30.9887 19.8127 29.242 20.6805C30.841 17.4247 31.0174 14.3848 29.7722 11.8109C30.1643 11.2656 30.5493 10.7448 30.9214 10.2545C34.5148 5.51901 37.7477 2.38152 37.78 2.35037C38.1679 1.97576 38.1787 1.3576 37.8041 0.969611C37.4295 0.581721 36.8114 0.570784 36.4234 0.945197C36.2881 1.07576 33.0683 4.19851 29.3861 9.04664C29.1425 9.36754 28.8931 9.70181 28.6402 10.0461C26.4024 7.29899 23.9786 7.71842 22.9879 8.05455C21.6295 8.51539 20.4839 9.59547 19.9063 10.8194C18.7588 10.0608 17.4025 9.75738 16.0555 9.99508C14.2301 10.3168 12.7191 11.5813 12.1125 13.2953C11.6922 14.4825 11.7756 15.5187 12.1771 16.6042C11.4193 16.2138 10.6054 15.942 9.73814 15.844C7.89967 15.6358 6.47057 16.0457 5.49148 17.0615C4.46882 18.1221 4.23816 19.5803 4.21267 20.5492C3.46658 20.698 2.48689 21.0657 1.81961 21.9644C0.942756 23.1452 0.881136 24.828 1.63611 26.966C2.24353 28.686 3.57498 30.0017 5.09587 30.9947C3.33494 31.3381 1.40906 32.0602 0.538558 33.5691C-0.324233 35.0646 -0.138686 36.9307 1.01131 38.3228C1.84324 39.33 3.31795 40.1851 5.2154 40.0179C5.14704 41.931 5.84538 43.6753 7.13092 44.6158C7.59743 44.9571 8.36588 45.3511 9.42555 45.3511C10.2708 45.3511 11.3013 45.1004 12.5118 44.372C16.8945 41.7345 18.816 38.4794 18.8955 38.3423C19.1658 37.8765 19.0075 37.2811 18.5424 37.0097C18.0773 36.7384 17.4798 36.8956 17.2074 37.36C17.1901 37.3895 15.4325 40.3348 11.5046 42.6985C10.5819 43.254 9.27399 43.7634 8.28405 43.0394C7.31598 42.3311 6.91813 40.6699 7.31647 38.9995C7.39919 38.6527 7.2862 38.2885 7.02194 38.0491C6.75768 37.8099 6.38386 37.7338 6.04714 37.8502C4.63816 38.3379 3.31873 38.0496 2.51717 37.0791C1.88211 36.3103 1.77225 35.3394 2.23035 34.5452C3.14607 32.9578 6.92477 32.6354 8.41012 32.6429C10.4038 33.3991 12.0773 33.7002 12.2324 33.7271C12.2888 33.7369 12.345 33.7416 12.4004 33.7416C12.423 33.7416 12.4454 33.7401 12.4676 33.7386C13.5771 34.0494 14.4759 34.1171 14.5676 34.1233C14.5901 34.125 14.6125 34.1256 14.6348 34.1256C15.144 34.1256 15.5731 33.7308 15.6081 33.2152C15.6448 32.6771 15.2381 32.2113 14.7 32.1748C14.6573 32.1719 10.4116 31.8174 9.9149 29.4199C9.77818 28.7595 9.70318 27.8515 10.123 27.2758C10.476 26.7917 11.0699 26.6998 11.1372 26.6908C11.6571 26.6614 12.036 26.2253 12.0311 25.7036C12.0276 25.3284 12.1534 24.2184 12.7697 23.5951C13.1127 23.2483 13.5771 23.0791 14.1891 23.0781C14.1902 23.0781 14.1912 23.0781 14.1921 23.0781C16.1895 23.0781 17.5129 26.3882 17.8543 27.6643C17.9928 28.185 18.5269 28.4951 19.0482 28.357C19.4016 28.2634 19.6576 27.9874 19.7432 27.6569C19.6592 28.1558 19.9719 28.6427 20.471 28.7661C20.5497 28.7856 20.6285 28.7948 20.7062 28.7948C21.1447 28.7948 21.5434 28.4974 21.6534 28.0525C21.6699 27.9861 21.688 27.92 21.7049 27.8538C21.7637 28.0424 21.8791 28.2152 22.0491 28.343C22.4801 28.6673 23.0923 28.5809 23.4164 28.1496C24.1569 27.1653 26.6876 24.5259 28.5375 25.281C29.1043 25.5123 29.4708 25.8439 29.6581 26.2945C29.9945 27.1037 29.6933 28.1795 29.5506 28.5215C29.3436 29.0044 29.5315 29.5525 30.0054 29.7768C30.0644 29.8105 30.58 30.1192 30.7249 30.7006C30.8972 31.392 30.4859 32.205 30.1107 32.7653C28.7562 34.7877 24.6799 33.5293 24.6404 33.5166C24.1283 33.348 23.5761 33.6264 23.4074 34.1388C23.2387 34.651 23.5173 35.203 24.0296 35.3717C24.1327 35.4057 25.3112 35.7837 26.767 35.8592C26.7955 35.8661 26.8242 35.8724 26.8538 35.8768C26.9863 35.897 28.2277 36.0779 29.9109 36.0779C30.2024 36.0779 30.5076 36.0721 30.8223 36.0595C32.2313 36.5216 35.7145 38.0193 36.0815 39.822C36.2644 40.7203 35.8525 41.6064 35.0066 42.1344C33.9392 42.801 32.5959 42.6564 31.4143 41.7474C31.1315 41.5299 30.7528 41.484 30.4266 41.6273C30.1 41.7706 29.8776 42.0803 29.8462 42.4354C29.6947 44.1461 28.7909 45.5956 27.6484 45.9606C26.4799 46.3342 25.401 45.436 24.7018 44.6169C21.7245 41.1296 20.9858 37.8074 20.9792 37.7766C20.8687 37.2488 20.3516 36.9106 19.8232 37.021C19.2953 37.1316 18.957 37.6492 19.0675 38.177C19.0998 38.3311 19.8961 41.9959 23.2163 45.8851C24.6542 47.5692 26.0444 48.0002 27.0908 48.0001C27.5488 48.0001 27.9413 47.9174 28.2427 47.8212C29.76 47.3365 30.975 45.9033 31.5164 44.0671C33.2621 44.8271 34.9328 44.4832 36.0409 43.7915C37.5727 42.8353 38.3398 41.1242 37.9954 39.4324C37.6478 37.7254 36.0497 36.4303 34.4881 35.5467C36.2455 35.0867 37.9254 34.2607 39.0466 32.8217C40.4402 31.0333 40.9149 29.4177 40.4574 28.0197ZM14.1925 21.1247C14.1905 21.1247 14.1879 21.1247 14.1858 21.1247C13.0518 21.1268 12.0776 21.5104 11.3685 22.2342C10.5371 23.0831 10.2397 24.1966 10.1344 24.9421C9.64918 25.1203 9.04694 25.4563 8.57301 26.0868C7.87438 27.0164 7.68239 28.271 8.00241 29.8159C8.04743 30.0332 8.10807 30.2391 8.18112 30.4352C6.14509 29.5301 4.13523 28.1776 3.47771 26.3156C2.96179 24.8548 2.92879 23.7553 3.3822 23.1359C3.94187 22.3714 5.17605 22.4026 5.1821 22.4028C5.47341 22.4163 5.75378 22.2974 5.94938 22.0822C6.14509 21.8669 6.23425 21.5738 6.19323 21.2858C6.19059 21.2671 5.93806 19.4044 6.90251 18.4118C7.43835 17.8601 8.31871 17.6494 9.51861 17.7847C11.4882 18.0073 13.1828 19.5046 14.4734 21.1359C14.381 21.1291 14.2876 21.1247 14.1925 21.1247ZM19.7625 27.5644C19.783 27.4343 19.7781 27.2982 19.7421 27.1627C19.7188 27.0745 19.5015 26.2767 19.0536 25.2883C19.0524 25.167 19.0291 25.0439 18.9799 24.9249C18.9339 24.8138 18.547 23.8947 17.8533 22.6798C17.0413 21.1687 16.272 19.9237 15.6506 18.9182C14.087 16.3888 13.4716 15.308 13.9535 13.9469C14.3257 12.8955 15.261 12.1182 16.3944 11.9185C17.6287 11.7008 18.8455 12.1927 19.7313 13.2678C20.0008 13.5951 20.4508 13.7109 20.8447 13.5547C21.2388 13.3985 21.4871 13.006 21.4594 12.5831C21.4004 11.6836 22.3099 10.3469 23.6151 9.90416C24.9557 9.44908 26.3124 10.0908 27.4515 11.7112C24.4552 16.0332 21.2191 21.6913 19.7625 27.5644ZM24.6109 23.9953C23.8086 24.7461 23.3114 25.3121 23.2435 25.3904C23.1931 25.4484 23.1518 25.5111 23.1174 25.5762C22.5821 26.0931 22.1888 26.5575 21.9922 26.8016C23.3851 22.0485 25.9316 17.4721 28.4173 13.7619C29.6453 18.4268 25.1268 23.4428 24.6109 23.9953ZM37.5063 31.6211C36.2142 33.2795 33.7735 33.8811 31.5857 34.0584C31.6364 33.9916 31.6861 33.9234 31.734 33.8521C32.6119 32.5412 32.9062 31.3067 32.6089 30.1825C32.4071 29.4198 31.9755 28.882 31.5931 28.5341C31.7762 27.8037 31.9197 26.6604 31.469 25.5611C31.0845 24.6235 30.3264 23.9014 29.2765 23.4727C29.0625 23.3853 28.8485 23.3204 28.6351 23.2745C30.3906 22.1116 32.5063 21.1956 34.4797 21.6157C35.6609 21.8673 36.4289 22.3462 36.7624 23.0393C37.3626 24.2864 36.5329 25.9731 36.5261 25.9868C36.3934 26.2471 36.3842 26.5531 36.5011 26.8209C36.6179 27.0888 36.8485 27.2901 37.1297 27.3698C37.1413 27.3732 38.3119 27.7413 38.6017 28.6269C38.8411 29.3585 38.4624 30.3941 37.5063 31.6211Z" fill="#795B39"/>
</svg>
